<?xml version="1.0" encoding="utf-8"?>
<!-- Generator: Adobe Illustrator 18.0.0, SVG Export Plug-In . SVG Version: 6.00 Build 0)  -->
<!DOCTYPE svg PUBLIC "-//W3C//DTD SVG 1.0//EN" "http://www.w3.org/TR/2001/REC-SVG-20010904/DTD/svg10.dtd">
<svg version="1.0" id="Layer_1" xmlns="http://www.w3.org/2000/svg" xmlns:xlink="http://www.w3.org/1999/xlink" x="0px" y="0px"
	 viewBox="0 0 2000 560" enable-background="new 0 0 2000 560" xml:space="preserve">
<g>
	<path fill="#00FFA5" d="M40.3,414.8c-17.4,0-35.2-3.2-53.4-9.1c-18.2-5.9-35.6-15.4-52.2-28.1l29.6-45.9
		c13.4,9.9,26.9,17,40.3,22.1c13.4,4.7,25.7,7.5,37.6,7.5c10.3,0,17.4-1.6,22.1-5.1c4.7-3.6,7.1-7.9,7.1-13.4v-0.8
		c0-3.6-1.2-6.7-4-9.5c-2.8-2.8-6.3-5.1-11.1-7.1c-4.7-2-10.3-4-16.2-5.9c-5.9-2-12.7-4-19.4-5.9c-8.7-2.4-17.4-5.5-26.1-9.1
		s-16.6-7.9-23.7-13.8c-7.1-5.5-12.7-12.7-17.4-21c-4.3-8.3-6.7-18.2-6.7-30.4v-0.8c0-12.7,2.4-23.7,7.1-33.2s11.1-17.8,19.4-24.5
		c7.9-6.7,17.4-11.9,28.5-15c10.7-3.6,22.5-5.1,35.2-5.1c15.4,0,31.2,2.4,47.4,7.5s30.8,11.9,44.3,21l-26.9,47.8
		c-12.3-7.1-24.1-12.7-36-16.6c-11.5-4-21.7-6.3-30.8-6.3c-8.7,0-15,1.6-19.4,4.7c-4.3,3.2-6.3,7.1-6.3,12.3v0.8
		c0,3.6,1.2,6.3,4,9.1c2.8,2.8,6.3,5.1,11.1,7.5s9.9,4.3,15.8,6.7c5.9,2,12.3,4.3,19,6.3c8.7,2.8,17.4,5.9,26.1,9.9
		c8.7,4,17,8.3,23.7,13.8c7.1,5.5,12.7,12.3,17.4,20.2c4.7,7.9,6.7,17.4,6.7,28.9v0.8c0,13.8-2.4,25.7-7.1,35.6
		c-4.7,9.9-11.5,18.2-19.8,24.5c-8.7,6.3-18.6,11.1-30,14.6C65.6,412.8,53.3,414.8,40.3,414.8z"/>
	<path fill="#00FFA5" d="M332.8,164.2h72.3L310.7,416c-4.7,12.7-9.5,23.3-14.6,32s-11.1,15.8-17.4,21.3s-13.4,9.5-21.3,11.9
		c-7.9,2.4-17,3.6-27.7,3.6c-12.7,0-24.1-1.6-34-4.7c-9.9-3.2-19-7.1-28.1-12.3l23.3-50.6c4.7,2.8,9.5,5.1,15,6.7
		c5.5,2,10.3,2.8,15,2.8c5.9,0,11.1-1.2,14.6-3.6c3.6-2.4,6.7-6.3,9.9-12.7l-96.1-246.3h73.9l56.1,167.6L332.8,164.2z"/>
	<path fill="#00FFA5" d="M438.3,164.2h69.6V199c4-5.1,8.3-10.3,13-15c4.7-4.7,9.9-9.1,15.8-12.7c5.9-3.6,12.3-6.7,19.4-8.7
		c7.1-2,15-3.2,23.7-3.2c26.5,0,47,8.3,61.7,24.1c14.6,16.2,21.7,38.3,21.7,66.8v159.3h-69.6V272.9c0-16.6-3.6-28.9-11.1-37.6
		c-7.5-8.3-17.8-12.7-31.2-12.7c-13.4,0-24.1,4.3-32,12.7c-7.9,8.3-11.9,21-11.9,37.6v137.2h-69.6V164.2H438.3z"/>
	<path fill="#00FFA5" d="M815.1,414.8c-14.2,0-28.5-2.8-41.9-8.3s-25.3-13.8-36-24.5c-10.3-10.7-18.6-24.1-24.9-39.9
		c-6.3-15.8-9.5-34-9.5-54.2v-0.8c0-20.6,3.2-38.7,9.5-54.6c6.3-15.8,14.6-28.9,24.9-39.9c10.3-10.7,22.1-19,35.6-24.5
		c13.4-5.5,27.7-8.3,42.3-8.3c18.6,0,34,3.6,46.3,11.1c12.3,7.5,22.1,15.8,30.4,25.7V75.2h69.6v334.8h-69.6v-35.2
		c-8.7,11.5-19,21.3-30.8,28.9C848.7,410.9,833.7,414.8,815.1,414.8z M832.9,355.5c8.3,0,15.8-1.6,23.3-4.7
		c7.1-3.2,13.4-7.9,19-13.8c5.5-5.9,9.5-13,12.7-21.7c3.2-8.3,4.7-17.8,4.7-27.7v-0.8c0-10.3-1.6-19.4-4.7-27.7
		c-3.2-8.3-7.5-15.4-12.7-21.7c-5.5-5.9-11.5-10.7-19-13.8c-7.1-3.2-15-4.7-23.3-4.7c-8.3,0-15.8,1.6-23.3,4.7
		c-7.1,3.2-13.4,7.9-19,13.8s-9.9,13-13,21.3c-3.2,8.3-4.7,17.4-4.7,28.1v0.8c0,10.3,1.6,19.4,4.7,27.7c3.2,8.3,7.5,15.4,13,21.7
		c5.5,5.9,11.9,10.7,19,13.8C817.1,353.9,825,355.5,832.9,355.5z"/>
	<path fill="#00FFA5" d="M1008,75.2h73.5v62.1H1008V75.2z M1009.6,164.2h69.6v245.9h-69.6V164.2z"/>
	<path fill="#00FFA5" d="M1248,415.6c-18.2,0-35.6-3.6-51-10.3c-15.8-6.7-29.3-15.8-40.7-27.3c-11.5-11.5-20.2-24.9-26.5-40.3
		c-6.3-15.4-9.5-32-9.5-49.4v-0.8c0-17.4,3.2-34,9.5-49.4s15.4-29.3,26.5-40.7c11.5-11.5,24.9-21,40.7-27.7
		c15.8-6.7,33.2-10.3,52.2-10.3c23.3,0,42.7,3.6,57.7,11.1c15.4,7.5,28.9,17.4,40.3,30.4l-42.7,45.9c-7.9-8.3-16.2-15-24.5-19.8
		c-8.3-4.7-19-7.5-31.2-7.5c-8.7,0-17,1.6-24.1,5.1s-13.4,8.3-19,14.6c-5.5,5.9-9.5,13-12.3,21.3c-2.8,8.3-4.3,16.6-4.3,26.1v0.8
		c0,9.5,1.6,18.2,4.3,26.5c2.8,8.3,7.1,15.4,12.7,21.7c5.5,5.9,12.3,11.1,19.8,14.6c7.5,3.6,16.2,5.1,25.7,5.1
		c11.5,0,21.7-2.4,30.4-7.1s17.4-11.1,26.1-19l40.7,41.1c-11.9,13-25.7,24.1-40.7,32.4C1292.2,411.3,1272.5,415.6,1248,415.6z"/>
	<path fill="#00FFA5" d="M1453.9,414.8c-11.5,0-22.5-1.6-32.8-4.7c-10.3-3.2-19.4-7.9-26.9-14.6c-7.5-6.3-13.8-14.2-18.2-23.7
		c-4.3-9.5-6.7-20.2-6.7-32.4v-0.8c0-13.4,2.4-24.9,7.5-34.8c4.7-9.9,11.9-17.8,20.6-24.1c8.7-6.3,19-11.1,31.2-14.6
		c12.3-3.2,25.3-4.7,40.3-4.7c12.7,0,23.3,0.8,32.8,2.8s18.6,4.3,27.3,7.5v-4c0-14.6-4.3-25.7-13.4-33.6
		c-8.7-7.5-22.1-11.5-39.5-11.5c-13.4,0-25.3,1.2-35.6,3.6c-10.3,2.4-21,5.5-32.4,9.9l-17.4-53.8c13.4-5.9,27.7-10.7,42.3-14.2
		c14.6-3.6,32.4-5.5,53.4-5.5c19.4,0,35.6,2.4,49.4,7.1c13.4,4.7,24.9,11.5,33.6,20.6c9.1,9.1,15.8,20.6,20.2,33.6
		c4.3,13.4,6.3,28.1,6.3,44.7v142.7h-67.6v-26.5c-8.7,9.5-19,17-30.8,22.5C1485.6,411.7,1470.9,414.8,1453.9,414.8z M1474.9,366.6
		c16.6,0,29.6-4,39.5-11.9c9.9-7.9,15-18.2,15-31.2v-12.3c-5.9-2.8-13-5.1-20.6-6.7c-7.5-1.6-15.4-2.4-24.1-2.4
		c-15,0-26.9,2.8-35.2,8.7c-8.7,5.9-12.7,14.2-12.7,25.3v0.8c0,9.5,3.6,17,10.7,22.1C1454.7,363.8,1463.8,366.6,1474.9,366.6z"/>
	<path fill="#00FFA5" d="M1725.9,414c-10.7,0-20.6-1.2-29.3-3.6c-8.7-2.4-16.2-6.3-22.5-12.3s-11.1-13.4-14.6-22.5
		c-3.6-9.5-5.1-21.3-5.1-35.6V223.9h-29.3v-59.7h29.3v-62.9h69.6v62.9h58.1v59.7h-57.7V329c0,15.8,7.5,23.7,22.5,23.7
		c12.3,0,23.7-2.8,34.4-8.7v56.1c-7.5,4.3-15.4,7.9-24.1,10.3C1748,412.8,1737.8,414,1725.9,414z"/>
	<path fill="#00FFA5" d="M1935.8,415.6c-18.2,0-35.6-3.2-51-9.1c-15.8-5.9-29.3-15-40.7-26.1c-11.5-11.5-20.6-24.5-26.9-40.3
		c-6.3-15.4-9.5-32.8-9.5-51.8v-0.8c0-17.4,3.2-34,9.1-49.4s14.2-29.3,24.9-40.7c10.7-11.5,23.3-21,38.3-27.7
		c15-6.7,31.2-10.3,49.4-10.3c20.6,0,38.3,3.6,53.4,11.1c15,7.5,27.3,17.4,37.6,29.6c9.9,12.3,17.4,26.5,22.1,42.7
		c4.7,16.2,7.1,32.8,7.1,50.2c0,2.8,0,5.5-0.4,8.7c0,3.2-0.4,6.3-0.8,9.5h-171.6c3.6,15.8,10.3,28.1,21,36
		c10.7,8.3,23.7,12.3,39.1,12.3c11.5,0,22.1-2,31.2-5.9c9.1-4,18.6-10.3,28.5-19.4l39.9,35.2c-11.5,14.2-25.7,25.7-42.3,33.6
		C1977.7,411.7,1958.4,415.6,1935.8,415.6z M1980.9,267.8c-2-15.4-7.5-28.1-16.6-38c-8.7-9.5-20.6-14.6-35.2-14.6
		c-14.6,0-26.5,4.7-35.6,14.2c-9.1,9.5-15,22.1-17.8,38h105.2V267.8z"/>
</g>
</svg>
