<?xml version="1.0" encoding="utf-8"?>
<!-- Generator: Adobe Illustrator 18.0.0, SVG Export Plug-In . SVG Version: 6.00 Build 0)  -->
<!DOCTYPE svg PUBLIC "-//W3C//DTD SVG 1.0//EN" "http://www.w3.org/TR/2001/REC-SVG-20010904/DTD/svg10.dtd">
<svg version="1.0" id="Layer_1" xmlns="http://www.w3.org/2000/svg" xmlns:xlink="http://www.w3.org/1999/xlink" x="0px" y="0px"
	 viewBox="0 0 2000 560" enable-background="new 0 0 2000 560" xml:space="preserve">
<g>
	<path fill="#00FFA5" d="M115.8,407.9c-16.2,0-32.8-2.9-49.8-8.5c-17-5.5-33.2-14.4-48.7-26.2L45,330.5
		c12.5,9.2,25.1,15.9,37.6,20.6c12.5,4.4,24,7,35,7c9.6,0,16.2-1.5,20.6-4.8c4.4-3.3,6.6-7.4,6.6-12.5v-0.7c0-3.3-1.1-6.3-3.7-8.8
		c-2.6-2.6-5.9-4.8-10.3-6.6s-9.6-3.7-15.1-5.5c-5.5-1.8-11.8-3.7-18.1-5.5c-8.1-2.2-16.2-5.2-24.3-8.5c-8.1-3.3-15.5-7.4-22.1-12.9
		c-6.6-5.2-11.8-11.8-16.2-19.5c-4.1-7.7-6.3-17-6.3-28.4v-0.7c0-11.8,2.2-22.1,6.6-31s10.3-16.6,18.1-22.9
		c7.4-6.3,16.2-11.1,26.5-14c10-3.3,21-4.8,32.8-4.8c14.4,0,29.1,2.2,44.2,7c15.1,4.8,28.8,11.1,41.3,19.5L173.3,242
		c-11.4-6.6-22.5-11.8-33.5-15.5c-10.7-3.7-20.3-5.9-28.8-5.9c-8.1,0-14,1.5-18.1,4.4c-4.1,2.9-5.9,6.6-5.9,11.4v0.7
		c0,3.3,1.1,5.9,3.7,8.5c2.6,2.6,5.9,4.8,10.3,7s9.2,4.1,14.7,6.3c5.5,1.8,11.4,4.1,17.7,5.9c8.1,2.6,16.2,5.5,24.3,9.2
		c8.1,3.7,15.9,7.7,22.1,12.9c6.6,5.2,11.8,11.4,16.2,18.8c4.4,7.4,6.3,16.2,6.3,26.9v0.7c0,12.9-2.2,24-6.6,33.2
		c-4.4,9.2-10.7,17-18.4,22.9c-8.1,5.9-17.3,10.3-28,13.6C139.4,406.1,127.9,407.9,115.8,407.9z"/>
	<path fill="#00FFA5" d="M388.6,174.2H456L367.9,409c-4.4,11.8-8.8,21.8-13.6,29.9c-4.8,8.1-10.3,14.7-16.2,19.9
		c-5.9,5.2-12.5,8.8-19.9,11.1c-7.4,2.2-15.9,3.3-25.8,3.3c-11.8,0-22.5-1.5-31.7-4.4s-17.7-6.6-26.2-11.4l21.8-47.2
		c4.4,2.6,8.8,4.8,14,6.3c5.2,1.8,9.6,2.6,14,2.6c5.5,0,10.3-1.1,13.6-3.3c3.3-2.2,6.3-5.9,9.2-11.8l-89.6-229.7h68.9l52.4,156.3
		L388.6,174.2z"/>
	<path fill="#00FFA5" d="M487,174.2h64.9v32.4c3.7-4.8,7.7-9.6,12.2-14s9.2-8.5,14.7-11.8c5.5-3.3,11.4-6.3,18.1-8.1
		c6.6-1.8,14-2.9,22.1-2.9c24.7,0,43.9,7.7,57.5,22.5c13.6,15.1,20.3,35.8,20.3,62.3v148.6h-64.9V275.6c0-15.5-3.3-26.9-10.3-35
		c-7-7.7-16.6-11.8-29.1-11.8s-22.5,4.1-29.9,11.8c-7.4,7.7-11.1,19.5-11.1,35v127.9h-64.9V174.2H487z"/>
	<path fill="#00FFA5" d="M838.3,407.9c-13.3,0-26.5-2.6-39.1-7.7c-12.5-5.2-23.6-12.9-33.5-22.9c-9.6-10-17.3-22.5-23.2-37.2
		c-5.9-14.7-8.8-31.7-8.8-50.5v-0.7c0-19.2,2.9-36.1,8.8-50.9c5.9-14.7,13.6-26.9,23.2-37.2c9.6-10,20.6-17.7,33.2-22.9
		c12.5-5.2,25.8-7.7,39.4-7.7c17.3,0,31.7,3.3,43.1,10.3c11.4,7,20.6,14.7,28.4,24V91.2h64.9v312.3h-64.9v-32.8
		c-8.1,10.7-17.7,19.9-28.8,26.9C869.7,404.2,855.7,407.9,838.3,407.9z M854.9,352.6c7.7,0,14.7-1.5,21.8-4.4
		c6.6-2.9,12.5-7.4,17.7-12.9c5.2-5.5,8.8-12.2,11.8-20.3c2.9-7.7,4.4-16.6,4.4-25.8v-0.7c0-9.6-1.5-18.1-4.4-25.8
		c-2.9-7.7-7-14.4-11.8-20.3c-5.2-5.5-10.7-10-17.7-12.9c-6.6-2.9-14-4.4-21.8-4.4s-14.7,1.5-21.8,4.4c-6.6,2.9-12.5,7.4-17.7,12.9
		s-9.2,12.2-12.2,19.9c-2.9,7.7-4.4,16.2-4.4,26.2v0.7c0,9.6,1.5,18.1,4.4,25.8c2.9,7.7,7,14.4,12.2,20.3c5.2,5.5,11.1,10,17.7,12.9
		C840.2,351.2,847.6,352.6,854.9,352.6z"/>
	<path fill="#00FFA5" d="M1018.2,91.2h68.6v57.9h-68.6V91.2z M1019.7,174.2h64.9v229.3h-64.9V174.2z"/>
	<path fill="#00FFA5" d="M1242,408.7c-17,0-33.2-3.3-47.6-9.6c-14.7-6.3-27.3-14.7-38-25.4c-10.7-10.7-18.8-23.2-24.7-37.6
		s-8.8-29.9-8.8-46.1v-0.7c0-16.2,2.9-31.7,8.8-46.1s14.4-27.3,24.7-38c10.7-10.7,23.2-19.5,38-25.8c14.7-6.3,31-9.6,48.7-9.6
		c21.8,0,39.8,3.3,53.8,10.3c14.4,7,26.9,16.2,37.6,28.4l-39.8,42.8c-7.4-7.7-15.1-14-22.9-18.4s-17.7-7-29.1-7
		c-8.1,0-15.9,1.5-22.5,4.8c-6.6,3.3-12.5,7.7-17.7,13.6c-5.2,5.5-8.8,12.2-11.4,19.9c-2.6,7.7-4.1,15.5-4.1,24.3v0.7
		c0,8.8,1.5,17,4.1,24.7s6.6,14.4,11.8,20.3c5.2,5.5,11.4,10.3,18.4,13.6c7,3.3,15.1,4.8,24,4.8c10.7,0,20.3-2.2,28.4-6.6
		c8.1-4.4,16.2-10.3,24.3-17.7l38,38.3c-11.1,12.2-24,22.5-38,30.2C1283.3,404.6,1264.9,408.7,1242,408.7z"/>
	<path fill="#00FFA5" d="M1434.1,407.9c-10.7,0-21-1.5-30.6-4.4s-18.1-7.4-25.1-13.6c-7-5.9-12.9-13.3-17-22.1s-6.3-18.8-6.3-30.2
		v-0.7c0-12.5,2.2-23.2,7-32.4c4.4-9.2,11.1-16.6,19.2-22.5c8.1-5.9,17.7-10.3,29.1-13.6c11.4-2.9,23.6-4.4,37.6-4.4
		c11.8,0,21.8,0.7,30.6,2.6c8.8,1.8,17.3,4.1,25.4,7v-3.7c0-13.6-4.1-24-12.5-31.3c-8.1-7-20.6-10.7-36.9-10.7
		c-12.5,0-23.6,1.1-33.2,3.3c-9.6,2.2-19.5,5.2-30.2,9.2l-16.2-50.1c12.5-5.5,25.8-10,39.4-13.3c13.6-3.3,30.2-5.2,49.8-5.2
		c18.1,0,33.2,2.2,46.1,6.6c12.5,4.4,23.2,10.7,31.3,19.2c8.5,8.5,14.7,19.2,18.8,31.3c4.1,12.5,5.9,26.2,5.9,41.7v133.1h-63v-24.7
		c-8.1,8.8-17.7,15.9-28.8,21C1463.6,405,1450,407.9,1434.1,407.9z M1453.6,362.9c15.5,0,27.6-3.7,36.9-11.1c9.2-7.4,14-17,14-29.1
		v-11.4c-5.5-2.6-12.2-4.8-19.2-6.3c-7-1.5-14.4-2.2-22.5-2.2c-14,0-25.1,2.6-32.8,8.1c-8.1,5.5-11.8,13.3-11.8,23.6v0.7
		c0,8.8,3.3,15.9,10,20.6C1434.8,360.4,1443.3,362.9,1453.6,362.9z"/>
	<path fill="#00FFA5" d="M1687.7,407.2c-10,0-19.2-1.1-27.3-3.3s-15.1-5.9-21-11.4c-5.9-5.5-10.3-12.5-13.6-21
		c-3.3-8.8-4.8-19.9-4.8-33.2V229.9h-27.3v-55.7h27.3v-58.6h64.9v58.6h54.2v55.7h-53.8v98.1c0,14.7,7,22.1,21,22.1
		c11.4,0,22.1-2.6,32.1-8.1v52.4c-7,4.1-14.4,7.4-22.5,9.6C1708.4,406.1,1698.8,407.2,1687.7,407.2z"/>
	<path fill="#00FFA5" d="M1883.5,408.7c-17,0-33.2-2.9-47.6-8.5c-14.7-5.5-27.3-14-38-24.3c-10.7-10.7-19.2-22.9-25.1-37.6
		c-5.9-14.4-8.8-30.6-8.8-48.3v-0.7c0-16.2,2.9-31.7,8.5-46.1c5.5-14.4,13.3-27.3,23.2-38c10-10.7,21.8-19.5,35.8-25.8
		c14-6.3,29.1-9.6,46.1-9.6c19.2,0,35.8,3.3,49.8,10.3c14,7,25.4,16.2,35,27.6c9.2,11.4,16.2,24.7,20.6,39.8
		c4.4,15.1,6.6,30.6,6.6,46.8c0,2.6,0,5.2-0.4,8.1c0,2.9-0.4,5.9-0.7,8.8h-160c3.3,14.7,9.6,26.2,19.5,33.5
		c10,7.7,22.1,11.4,36.5,11.4c10.7,0,20.6-1.8,29.1-5.5s17.3-9.6,26.5-18.1l37.2,32.8c-10.7,13.3-24,24-39.4,31.3
		C1922.6,405,1904.5,408.7,1883.5,408.7z M1925.5,270.8c-1.8-14.4-7-26.2-15.5-35.4c-8.1-8.8-19.2-13.6-32.8-13.6
		c-13.6,0-24.7,4.4-33.2,13.3c-8.5,8.8-14,20.6-16.6,35.4h98.1V270.8z"/>
</g>
</svg>
